PathFileType	4	(X/Y/Z)	s02c0201.trc
DataRate	CameraRate	NumFrames	NumMarkers	Units	OrigDataRate	OrigDataStartFrame	OrigNumFrames
200	200	4	51	mm	200	1250	2000
Frame#	Time	racr			lacr			c7			jug			rlel			rdr			llel			ldr			s2			lic			ric			lasi			rasi			rpsi			lpsi			rgt			lgt			rth1			rth2			rth3			rth4			rlfc			rmfc			rsh1			rsh2			rsh3			rsh4			rlmal			rmmal			rcal			rtoe			rmt5			rmt1			lth1			lth2			lth4			lth3			llfc			lmfc			lsh1			lsh2			lsh3			lsh4			llmal			lmmal			lcal			ltoe			lmt5			SBIKE			LBIKE			RBIKE			
		X1	Y1	Z1	X2	Y2	Z2	X3	Y3	Z3	X4	Y4	Z4	X5	Y5	Z5	X6	Y6	Z6	X7	Y7	Z7	X8	Y8	Z8	X9	Y9	Z9	X10	Y10	Z10	X11	Y11	Z11	X12	Y12	Z12	X13	Y13	Z13	X14	Y14	Z14	X15	Y15	Z15	X16	Y16	Z16	X17	Y17	Z17	X18	Y18	Z18	X19	Y19	Z19	X20	Y20	Z20	X21	Y21	Z21	X22	Y22	Z22	X23	Y23	Z23	X24	Y24	Z24	X25	Y25	Z25	X26	Y26	Z26	X27	Y27	Z27	X28	Y28	Z28	X29	Y29	Z29	X30	Y30	Z30	X31	Y31	Z31	X32	Y32	Z32	X33	Y33	Z33	X34	Y34	Z34	X35	Y35	Z35	X36	Y36	Z36	X37	Y37	Z37	X38	Y38	Z38	X39	Y39	Z39	X40	Y40	Z40	X41	Y41	Z41	X42	Y42	Z42	X43	Y43	Z43	X44	Y44	Z44	X45	Y45	Z45	X46	Y46	Z46	X47	Y47	Z47	X48	Y48	Z48	X49	Y49	Z49	X50	Y50	Z50	X51	Y51	Z51	
1250	6.2500	577.860993	1229.623309	-214.482137	539.224094	1230.421286	-536.031428	535.831585	1278.002124	-380.541665	480.709412	1146.867503	-370.669186	559.766021	1012.621042	-54.960492	706.610078	885.415261	-120.465995	507.791501	966.355105	-643.813474	689.420810	888.170671	-538.064862	9.358514	1114.028806	-304.668207	119.052186	1126.115392	-459.781729	155.230151	1121.129649	-176.815749	161.080277	1098.582693	-437.889352	200.618662	1090.377773	-208.124682	45.605152	1163.659354	-259.555051	38.875538	1181.840739	-341.490573	119.163969	1023.572583	-138.198009	87.741452	1055.702396	-499.618393	185.421356	945.740371	-126.582324	241.709997	877.280065	-129.142943	260.450845	795.458970	-109.718652	268.640584	888.442377	-153.682571	296.012828	661.296536	-149.922175	283.873752	644.041622	-255.525465	281.268178	557.830439	-127.159194	285.780592	469.929421	-142.330551	250.471093	391.403785	-135.705364	298.005421	469.630575	-179.907984	218.699130	277.784713	-140.429439	225.310511	293.485464	-219.354048	134.242121	262.294837	-176.746217	387.105107	125.070151	-195.301857	286.925255	158.881059	-128.263261	310.527487	163.506570	-236.778742	221.807330	1029.780146	-507.912966	307.085767	1027.589699	-502.449909	315.821770	1057.184177	-481.193484	383.263697	981.694084	-509.091771	482.228654	947.175204	-492.750074	487.170048	917.805478	-379.546225	446.904128	854.734155	-504.418225	412.876061	777.910185	-486.534167	342.237914	721.870516	-490.459458	430.877495	767.753622	-451.040526	258.333657	639.472807	-477.585027	279.300221	631.926495	-399.265689	182.147022	618.962924	-436.624733	430.528474	473.871502	-442.703877	327.138181	503.869475	-502.093753	-164.946815	858.443042	-314.546455	32.832115	82.979201	-515.194208	33.003729	82.374216	-115.019908	
1251	6.2550	579.235310	1228.410817	-217.350806	537.489057	1230.033025	-538.294556	535.625562	1277.255020	-382.902767	480.522831	1146.129029	-372.828430	560.140537	1013.723552	-55.133342	706.535528	885.538926	-120.155608	507.124190	965.380997	-644.209626	689.239842	888.148480	-538.194235	8.970614	1115.220321	-303.594427	118.545447	1127.598129	-458.962951	155.326485	1121.927070	-176.116333	160.609090	1100.149940	-437.257611	200.123786	1090.748576	-207.482111	45.418804	1165.178184	-258.210800	38.802980	1183.522470	-340.183390	118.615254	1023.768566	-137.365766	87.345744	1057.272773	-498.564683	184.714415	945.980299	-126.368798	241.593611	877.803927	-128.760237	260.774664	796.039292	-109.792422	268.490909	889.214336	-153.396945	297.156366	662.150173	-150.481940	284.570472	645.322723	-256.338996	280.576629	558.927631	-128.246341	282.569733	470.905582	-143.796896	245.398477	393.430784	-136.918100	294.698241	470.559654	-181.344009	209.973212	280.726174	-141.549742	217.595607	296.218011	-220.642691	125.671978	266.241806	-178.859075	376.572243	125.652023	-194.459256	276.222915	160.967544	-128.609612	301.003646	164.638140	-236.803428	221.041008	1030.847086	-508.231575	306.177453	1028.335051	-502.922340	315.149482	1058.059780	-481.916162	382.122547	982.165671	-509.662798	481.213145	948.641661	-493.667651	487.401739	919.622334	-380.213729	447.450452	855.821287	-505.644028	415.596016	778.245866	-487.640400	346.124545	720.818538	-491.252092	434.118756	768.292988	-452.278144	263.922164	635.383433	-477.881848	285.397618	628.778932	-399.911374	189.177933	613.218806	-436.113814	440.604946	475.522655	-443.175349	336.437789	502.297769	-502.457046	-165.008271	858.422701	-314.555809	32.809259	82.981852	-515.191950	33.048525	82.362438	-114.981046	
1252	6.2600	580.410390	1226.835535	-220.115942	535.719217	1229.543696	-540.291806	535.362352	1276.377426	-385.248694	479.989646	1145.374604	-375.071244	560.399878	1014.714132	-55.305340	706.541722	885.670651	-119.859644	506.347662	964.422298	-644.499331	689.012437	888.205736	-538.282101	8.597886	1116.017990	-303.012489	118.029858	1128.901159	-458.117029	155.095586	1122.648149	-175.437548	160.288934	1101.695823	-437.023799	199.460936	1091.155357	-207.152861	45.161465	1166.679418	-257.030699	38.711804	1185.091737	-339.042633	118.073673	1024.073474	-136.381623	86.929365	1058.522960	-497.466688	184.144521	946.351164	-126.300682	241.742824	878.796863	-128.574129	261.710042	796.925690	-110.044730	268.548896	890.405658	-153.208270	298.350401	663.736581	-151.441661	286.076757	647.070116	-257.242854	280.433919	560.476143	-129.411496	279.987865	472.504364	-145.259295	240.747003	395.858604	-138.443561	291.840111	471.886786	-182.870709	201.449012	284.338741	-142.954467	210.212469	299.690694	-222.160387	117.164182	271.148033	-181.388230	366.045288	126.830313	-193.298400	265.540225	163.828451	-129.085850	291.512236	166.377685	-237.035834	218.326562	1029.681535	-503.196469	305.262914	1028.365473	-503.552653	314.530494	1058.301566	-482.922171	380.801643	981.564743	-510.204896	479.954110	948.695574	-494.593320	487.758127	919.972064	-381.193547	447.721630	855.613911	-506.650452	417.736513	777.141478	-488.835823	349.260519	718.338674	-492.188124	436.835445	767.421820	-453.811757	269.249137	630.410279	-478.464899	290.873127	624.855907	-400.727799	194.309635	606.154541	-437.100094	450.530857	476.842715	-443.246309	345.418853	499.874540	-502.922505	-164.978791	857.860664	-315.869933	32.822767	83.013492	-515.177195	33.122187	82.343722	-114.900175	
1253	6.2650	581.470915	1225.223468	-222.797742	533.866050	1228.984217	-542.269480	535.016878	1275.448095	-387.415253	479.373499	1144.569395	-377.137621	560.542727	1015.485110	-55.609464	706.588723	885.732482	-119.579581	505.549377	963.289664	-644.838613	688.752151	888.340168	-538.300240	9.127734	1116.558147	-303.955820	117.517977	1130.178148	-457.452762	154.665628	1123.303297	-174.716227	159.883826	1103.080085	-436.569001	198.703126	1091.557966	-206.796816	44.851010	1168.282029	-255.976109	38.272476	1186.854141	-338.017195	117.420729	1024.679239	-135.388396	86.606893	1059.549111	-496.373200	183.847712	946.636628	-126.469751	242.221184	879.940461	-128.804601	263.103883	798.253702	-110.441362	268.902637	891.924069	-153.240327	300.541217	665.685303	-152.584323	288.249304	649.384279	-258.257436	280.762918	562.398116	-130.747546	277.691303	474.412344	-147.035590	236.546942	398.931745	-140.072496	289.612262	473.675788	-184.435755	193.369247	288.539386	-144.782054	203.098194	303.786159	-223.901696	109.193932	276.594549	-184.038139	355.709918	128.470883	-192.148748	255.175879	167.415772	-129.631426	282.061314	168.625168	-237.488632	219.272051	1031.478100	-508.419165	304.356593	1027.610490	-504.168748	313.987524	1057.718998	-483.959140	379.423215	980.057654	-510.588966	478.545745	947.408736	-495.481335	487.766223	918.991296	-382.209341	447.695937	853.950702	-507.586034	419.395410	774.772110	-490.270110	351.981524	714.650564	-493.116204	439.084245	765.126473	-455.476127	274.242023	624.252760	-479.008384	295.852090	619.717900	-401.700782	199.380302	597.950115	-437.772768	460.190933	478.079811	-443.602986	354.215854	496.754152	-503.680645	-165.060963	857.736903	-316.265481	32.808403	83.031860	-515.171115	33.153542	82.333479	-114.866555	
